<svg width="154" height="32" viewBox="0 0 154 32" fill="none" xmlns="http://www.w3.org/2000/svg">
<path d="M0 8.42105C0 3.77023 3.77023 0 8.42105 0H23.5789C28.2298 0 32 3.77023 32 8.42105V23.5789C32 28.2298 28.2298 32 23.5789 32H8.42105C3.77023 32 0 28.2298 0 23.5789V8.42105Z" fill="#242AA6"/>
<g filter="url(#filter0_d_10_207)">
<path d="M8.42383 8.42152C8.42383 7.49135 9.17787 6.7373 10.108 6.7373C11.0382 6.7373 11.7922 7.49135 11.7922 8.42152V23.5794C11.7922 24.5096 11.0382 25.2636 10.108 25.2636C9.17787 25.2636 8.42383 24.5096 8.42383 23.5794V8.42152Z" fill="white"/>
</g>
<g filter="url(#filter1_d_10_207)">
<path d="M14.7422 15.1569C14.7422 14.2267 15.4962 13.4727 16.4264 13.4727C17.3566 13.4727 18.1106 14.2267 18.1106 15.1569V23.5779C18.1106 24.5081 17.3566 25.2621 16.4264 25.2621C15.4962 25.2621 14.7422 24.5081 14.7422 23.5779V15.1569Z" fill="white" fill-opacity="0.9"/>
</g>
<g filter="url(#filter2_d_10_207)">
<path d="M21.0547 10.9459C21.0547 10.0158 21.8087 9.26172 22.7389 9.26172C23.6691 9.26172 24.4231 10.0158 24.4231 10.9459V23.5775C24.4231 24.5077 23.6691 25.2617 22.7389 25.2617C21.8087 25.2617 21.0547 24.5077 21.0547 23.5775V10.9459Z" fill="white" fill-opacity="0.7"/>
</g>
<path d="M50.392 22V10.408H53.56V22H50.392ZM51.976 8.536C51.464 8.536 51.04 8.368 50.704 8.032C50.368 7.68 50.2 7.248 50.2 6.736C50.2 6.24 50.368 5.816 50.704 5.464C51.04 5.112 51.464 4.936 51.976 4.936C52.504 4.936 52.928 5.112 53.248 5.464C53.584 5.816 53.752 6.24 53.752 6.736C53.752 7.248 53.584 7.68 53.248 8.032C52.928 8.368 52.504 8.536 51.976 8.536ZM59.0811 14.944V12.4H62.9931C63.7931 12.4 64.4091 12.2 64.8411 11.8C65.2891 11.384 65.5131 10.816 65.5131 10.096C65.5131 9.44 65.2891 8.896 64.8411 8.464C64.4091 8.016 63.7931 7.792 62.9931 7.792H59.0811V5.128H63.2811C64.3691 5.128 65.3211 5.344 66.1371 5.776C66.9691 6.192 67.6091 6.768 68.0571 7.504C68.5211 8.24 68.7531 9.088 68.7531 10.048C68.7531 11.04 68.5211 11.904 68.0571 12.64C67.6091 13.36 66.9691 13.928 66.1371 14.344C65.3051 14.744 64.3371 14.944 63.2331 14.944H59.0811ZM56.6811 22V5.128H59.9451V22H56.6811ZM65.8971 22L60.3291 14.704L63.3291 13.768L69.8571 22H65.8971ZM76.5844 22.24C75.3684 22.24 74.2884 21.984 73.3444 21.472C72.4004 20.944 71.6484 20.224 71.0884 19.312C70.5444 18.4 70.2724 17.36 70.2724 16.192C70.2724 15.04 70.5364 14.016 71.0644 13.12C71.6084 12.208 72.3444 11.488 73.2724 10.96C74.2004 10.416 75.2324 10.144 76.3684 10.144C77.4884 10.144 78.4724 10.4 79.3204 10.912C80.1844 11.408 80.8564 12.096 81.3364 12.976C81.8324 13.84 82.0804 14.824 82.0804 15.928C82.0804 16.136 82.0644 16.352 82.0324 16.576C82.0164 16.784 81.9764 17.024 81.9124 17.296L72.1684 17.32V14.968L80.4484 14.944L79.1764 15.928C79.1444 15.24 79.0164 14.664 78.7924 14.2C78.5844 13.736 78.2724 13.384 77.8564 13.144C77.4564 12.888 76.9604 12.76 76.3684 12.76C75.7444 12.76 75.2004 12.904 74.7364 13.192C74.2724 13.464 73.9124 13.856 73.6564 14.368C73.4164 14.864 73.2964 15.456 73.2964 16.144C73.2964 16.848 73.4244 17.464 73.6804 17.992C73.9524 18.504 74.3364 18.904 74.8324 19.192C75.3284 19.464 75.9044 19.6 76.5604 19.6C77.1524 19.6 77.6884 19.504 78.1684 19.312C78.6484 19.104 79.0644 18.8 79.4164 18.4L81.2644 20.248C80.7044 20.904 80.0164 21.4 79.2004 21.736C78.4004 22.072 77.5284 22.24 76.5844 22.24ZM88.0088 22.264C87.3528 22.264 86.7048 22.176 86.0648 22C85.4408 21.824 84.8648 21.584 84.3368 21.28C83.8088 20.96 83.3528 20.576 82.9688 20.128L84.8408 18.232C85.2408 18.68 85.7048 19.016 86.2328 19.24C86.7608 19.464 87.3448 19.576 87.9848 19.576C88.4968 19.576 88.8808 19.504 89.1368 19.36C89.4088 19.216 89.5448 19 89.5448 18.712C89.5448 18.392 89.4008 18.144 89.1128 17.968C88.8408 17.792 88.4808 17.648 88.0328 17.536C87.5848 17.408 87.1128 17.272 86.6168 17.128C86.1368 16.968 85.6728 16.768 85.2248 16.528C84.7768 16.272 84.4088 15.928 84.1208 15.496C83.8488 15.048 83.7128 14.472 83.7128 13.768C83.7128 13.032 83.8888 12.392 84.2408 11.848C84.6088 11.304 85.1288 10.88 85.8008 10.576C86.4728 10.272 87.2648 10.12 88.1768 10.12C89.1368 10.12 90.0008 10.288 90.7688 10.624C91.5528 10.96 92.2008 11.464 92.7128 12.136L90.8168 14.032C90.4648 13.6 90.0648 13.288 89.6168 13.096C89.1848 12.904 88.7128 12.808 88.2008 12.808C87.7368 12.808 87.3768 12.88 87.1208 13.024C86.8808 13.168 86.7608 13.368 86.7608 13.624C86.7608 13.912 86.8968 14.136 87.1688 14.296C87.4568 14.456 87.8248 14.6 88.2728 14.728C88.7208 14.84 89.1848 14.976 89.6648 15.136C90.1608 15.28 90.6248 15.488 91.0568 15.76C91.5048 16.032 91.8648 16.392 92.1368 16.84C92.4248 17.288 92.5688 17.864 92.5688 18.568C92.5688 19.704 92.1608 20.608 91.3448 21.28C90.5288 21.936 89.4168 22.264 88.0088 22.264ZM100.233 22.24C99.0169 22.24 97.9369 21.984 96.9929 21.472C96.0489 20.944 95.2969 20.224 94.7369 19.312C94.1929 18.4 93.9209 17.36 93.9209 16.192C93.9209 15.04 94.1849 14.016 94.7129 13.12C95.2569 12.208 95.9929 11.488 96.9209 10.96C97.8489 10.416 98.8809 10.144 100.017 10.144C101.137 10.144 102.121 10.4 102.969 10.912C103.833 11.408 104.505 12.096 104.985 12.976C105.481 13.84 105.729 14.824 105.729 15.928C105.729 16.136 105.713 16.352 105.681 16.576C105.665 16.784 105.625 17.024 105.561 17.296L95.8169 17.32V14.968L104.097 14.944L102.825 15.928C102.793 15.24 102.665 14.664 102.441 14.2C102.233 13.736 101.921 13.384 101.505 13.144C101.105 12.888 100.609 12.76 100.017 12.76C99.3929 12.76 98.8489 12.904 98.3849 13.192C97.9209 13.464 97.5609 13.856 97.3049 14.368C97.0649 14.864 96.9449 15.456 96.9449 16.144C96.9449 16.848 97.0729 17.464 97.3289 17.992C97.6009 18.504 97.9849 18.904 98.4809 19.192C98.9769 19.464 99.5529 19.6 100.209 19.6C100.801 19.6 101.337 19.504 101.817 19.312C102.297 19.104 102.713 18.8 103.065 18.4L104.913 20.248C104.353 20.904 103.665 21.4 102.849 21.736C102.049 22.072 101.177 22.24 100.233 22.24ZM107.673 22V10.408H110.817V22H107.673ZM110.817 15.592L109.593 14.776C109.737 13.352 110.153 12.232 110.841 11.416C111.529 10.584 112.521 10.168 113.817 10.168C114.377 10.168 114.881 10.264 115.329 10.456C115.777 10.632 116.185 10.928 116.553 11.344L114.585 13.6C114.409 13.408 114.193 13.264 113.937 13.168C113.697 13.072 113.417 13.024 113.097 13.024C112.425 13.024 111.873 13.24 111.441 13.672C111.025 14.088 110.817 14.728 110.817 15.592ZM121.308 22L116.196 10.408H119.652L123.324 19.96H121.62L125.316 10.408H128.652L123.564 22H121.308ZM135.295 22.24C134.079 22.24 132.999 21.984 132.055 21.472C131.111 20.944 130.359 20.224 129.799 19.312C129.255 18.4 128.983 17.36 128.983 16.192C128.983 15.04 129.247 14.016 129.775 13.12C130.319 12.208 131.055 11.488 131.983 10.96C132.911 10.416 133.943 10.144 135.079 10.144C136.199 10.144 137.183 10.4 138.031 10.912C138.895 11.408 139.567 12.096 140.047 12.976C140.543 13.84 140.791 14.824 140.791 15.928C140.791 16.136 140.775 16.352 140.743 16.576C140.727 16.784 140.687 17.024 140.623 17.296L130.879 17.32V14.968L139.159 14.944L137.887 15.928C137.855 15.24 137.727 14.664 137.503 14.2C137.295 13.736 136.983 13.384 136.567 13.144C136.167 12.888 135.671 12.76 135.079 12.76C134.455 12.76 133.911 12.904 133.447 13.192C132.983 13.464 132.623 13.856 132.367 14.368C132.127 14.864 132.007 15.456 132.007 16.144C132.007 16.848 132.135 17.464 132.391 17.992C132.663 18.504 133.047 18.904 133.543 19.192C134.039 19.464 134.615 19.6 135.271 19.6C135.863 19.6 136.399 19.504 136.879 19.312C137.359 19.104 137.775 18.8 138.127 18.4L139.975 20.248C139.415 20.904 138.727 21.4 137.911 21.736C137.111 22.072 136.239 22.24 135.295 22.24Z" fill="white"/>
<defs>
<filter id="filter0_d_10_207" x="7.42383" y="6.2373" width="5.36841" height="20.5263" filterUnits="userSpaceOnUse" color-interpolation-filters="sRGB">
<feFlood flood-opacity="0" result="BackgroundImageFix"/>
<feColorMatrix in="SourceAlpha" type="matrix" values="0 0 0 0 0 0 0 0 0 0 0 0 0 0 0 0 0 0 127 0" result="hardAlpha"/>
<feOffset dy="0.5"/>
<feGaussianBlur stdDeviation="0.5"/>
<feComposite in2="hardAlpha" operator="out"/>
<feColorMatrix type="matrix" values="0 0 0 0 0 0 0 0 0 0 0 0 0 0 0 0 0 0 0.12 0"/>
<feBlend mode="normal" in2="BackgroundImageFix" result="effect1_dropShadow_10_207"/>
<feBlend mode="normal" in="SourceGraphic" in2="effect1_dropShadow_10_207" result="shape"/>
</filter>
<filter id="filter1_d_10_207" x="13.7422" y="12.9727" width="5.36841" height="13.7894" filterUnits="userSpaceOnUse" color-interpolation-filters="sRGB">
<feFlood flood-opacity="0" result="BackgroundImageFix"/>
<feColorMatrix in="SourceAlpha" type="matrix" values="0 0 0 0 0 0 0 0 0 0 0 0 0 0 0 0 0 0 127 0" result="hardAlpha"/>
<feOffset dy="0.5"/>
<feGaussianBlur stdDeviation="0.5"/>
<feComposite in2="hardAlpha" operator="out"/>
<feColorMatrix type="matrix" values="0 0 0 0 0 0 0 0 0 0 0 0 0 0 0 0 0 0 0.12 0"/>
<feBlend mode="normal" in2="BackgroundImageFix" result="effect1_dropShadow_10_207"/>
<feBlend mode="normal" in="SourceGraphic" in2="effect1_dropShadow_10_207" result="shape"/>
</filter>
<filter id="filter2_d_10_207" x="20.0547" y="8.76172" width="5.36841" height="18" filterUnits="userSpaceOnUse" color-interpolation-filters="sRGB">
<feFlood flood-opacity="0" result="BackgroundImageFix"/>
<feColorMatrix in="SourceAlpha" type="matrix" values="0 0 0 0 0 0 0 0 0 0 0 0 0 0 0 0 0 0 127 0" result="hardAlpha"/>
<feOffset dy="0.5"/>
<feGaussianBlur stdDeviation="0.5"/>
<feComposite in2="hardAlpha" operator="out"/>
<feColorMatrix type="matrix" values="0 0 0 0 0 0 0 0 0 0 0 0 0 0 0 0 0 0 0.12 0"/>
<feBlend mode="normal" in2="BackgroundImageFix" result="effect1_dropShadow_10_207"/>
<feBlend mode="normal" in="SourceGraphic" in2="effect1_dropShadow_10_207" result="shape"/>
</filter>
</defs>
</svg>
